<svg width="20" height="16" viewBox="0 0 20 16" fill="none" xmlns="http://www.w3.org/2000/svg">
<path d="M18.6807 7.25292L17.7365 5.94209C17.5252 5.64528 17.2461 5.40314 16.9225 5.23575C16.5989 5.06836 16.24 4.98054 15.8757 4.97959H11.8607V3.01792C11.8607 2.41014 11.6192 1.82724 11.1895 1.39747C10.7597 0.9677 10.1768 0.726257 9.56902 0.726257H3.17985C2.57258 0.727951 1.99067 0.969937 1.56127 1.39934C1.13186 1.82875 0.889877 2.41066 0.888184 3.01792V12.1296C0.888184 12.4943 1.03305 12.844 1.29091 13.1019C1.54877 13.3597 1.89851 13.5046 2.26318 13.5046H3.38152C3.45073 13.995 3.69475 14.444 4.06866 14.7688C4.44256 15.0937 4.92121 15.2726 5.41652 15.2726C5.91183 15.2726 6.39047 15.0937 6.76438 14.7688C7.13829 14.444 7.3823 13.995 7.45152 13.5046H12.5482C12.6174 13.995 12.8614 14.444 13.2353 14.7688C13.6092 15.0937 14.0879 15.2726 14.5832 15.2726C15.0785 15.2726 15.5571 15.0937 15.931 14.7688C16.305 14.444 16.549 13.995 16.6182 13.5046H17.7365C18.1012 13.5046 18.4509 13.3597 18.7088 13.1019C18.9667 12.844 19.1115 12.4943 19.1115 12.1296V8.58209C19.1093 8.10507 18.9587 7.64055 18.6807 7.25292ZM5.41652 14.3571C5.18989 14.3571 4.96836 14.2899 4.77993 14.164C4.59149 14.0381 4.44463 13.8591 4.3579 13.6497C4.27118 13.4404 4.24849 13.21 4.2927 12.9877C4.33691 12.7654 4.44604 12.5613 4.60629 12.401C4.76654 12.2408 4.97071 12.1317 5.19298 12.0874C5.41525 12.0432 5.64564 12.0659 5.85501 12.1526C6.06438 12.2394 6.24334 12.3862 6.36924 12.5747C6.49515 12.7631 6.56235 12.9846 6.56235 13.2113C6.56235 13.5151 6.44163 13.8066 6.22674 14.0215C6.01186 14.2364 5.72041 14.3571 5.41652 14.3571ZM10.944 12.5879H7.38735C7.25388 12.17 6.99104 11.8054 6.63678 11.5467C6.28253 11.2879 5.8552 11.1485 5.41652 11.1485C4.97783 11.1485 4.55051 11.2879 4.19625 11.5467C3.842 11.8054 3.57915 12.17 3.44568 12.5879H2.26318C2.14163 12.5879 2.02505 12.5396 1.93909 12.4537C1.85314 12.3677 1.80485 12.2511 1.80485 12.1296V3.01792C1.80485 2.65325 1.94972 2.30351 2.20758 2.04565C2.46544 1.78779 2.81518 1.64292 3.17985 1.64292H9.56902C9.93369 1.64292 10.2834 1.78779 10.5413 2.04565C10.7992 2.30351 10.944 2.65325 10.944 3.01792V12.5879ZM14.5832 14.3571C14.3566 14.3571 14.135 14.2899 13.9466 14.164C13.7582 14.0381 13.6113 13.8591 13.5246 13.6497C13.4378 13.4404 13.4152 13.21 13.4594 12.9877C13.5036 12.7654 13.6127 12.5613 13.773 12.401C13.9332 12.2408 14.1374 12.1317 14.3596 12.0874C14.5819 12.0432 14.8123 12.0659 15.0217 12.1526C15.231 12.2394 15.41 12.3862 15.5359 12.5747C15.6618 12.7631 15.729 12.9846 15.729 13.2113C15.729 13.5151 15.6083 13.8066 15.3934 14.0215C15.1785 14.2364 14.8871 14.3571 14.5832 14.3571ZM18.1949 12.1296C18.1949 12.2511 18.1466 12.3677 18.0606 12.4537C17.9747 12.5396 17.8581 12.5879 17.7365 12.5879H16.554C16.4205 12.17 16.1577 11.8054 15.8035 11.5467C15.4492 11.2879 15.0219 11.1485 14.5832 11.1485C14.1445 11.1485 13.7172 11.2879 13.3629 11.5467C13.0087 11.8054 12.7458 12.17 12.6124 12.5879H11.8607V5.89626H15.8757C16.0944 5.89772 16.3097 5.95079 16.504 6.05114C16.6983 6.15149 16.8662 6.29629 16.994 6.47376L17.9382 7.78459C18.1032 8.01799 18.1927 8.29629 18.1949 8.58209V12.1296Z" fill="#797979"/>
<path d="M15.5265 8.18791H13.6932C13.5716 8.18791 13.4551 8.13962 13.3691 8.05366C13.2832 7.96771 13.2349 7.85113 13.2349 7.72957C13.2349 7.60802 13.2832 7.49144 13.3691 7.40548C13.4551 7.31953 13.5716 7.27124 13.6932 7.27124H15.5265C15.6481 7.27124 15.7647 7.31953 15.8506 7.40548C15.9366 7.49144 15.9849 7.60802 15.9849 7.72957C15.9849 7.85113 15.9366 7.96771 15.8506 8.05366C15.7647 8.13962 15.6481 8.18791 15.5265 8.18791Z" fill="#797979"/>
</svg>
